<?xml version="1.0" encoding="UTF-8"?>
<svg xmlns="http://www.w3.org/2000/svg" xmlns:xlink="http://www.w3.org/1999/xlink" width="569.7638pt" height="226.7717pt" viewBox="0 0 569.7638 226.7717" version="1.1">
<g id="surface1">
<path style=" stroke:none;fill-rule:nonzero;fill:rgb(19.999695%,19.999695%,19.999695%);fill-opacity:1;" d="M 295.042969 91.765625 L 278.574219 91.765625 L 274.375 75.296875 L 290.84375 75.296875 Z M 295.042969 91.765625 "/>
<path style=" stroke:none;fill-rule:nonzero;fill:rgb(19.999695%,19.999695%,19.999695%);fill-opacity:1;" d="M 349.90625 182.152344 L 336.929688 182.152344 C 332.339844 182.152344 326.945312 180.9375 320.8125 178.472656 C 314.691406 176.042969 309.855469 172.703125 306.34375 168.453125 C 304.847656 172.855469 301.839844 176.234375 297.238281 178.585938 C 292.652344 180.976562 287.902344 182.152344 283.007812 182.152344 L 262.214844 182.152344 L 256.882812 161.246094 L 272.667969 161.246094 C 279.347656 161.246094 284.183594 158.929688 287.148438 154.339844 C 290.113281 149.746094 290.535156 143.21875 288.386719 134.796875 L 284.953125 121.324219 L 303.625 121.324219 L 307.058594 134.796875 C 309.101562 142.804688 312.820312 149.214844 318.226562 154.035156 C 323.664062 158.855469 329.777344 161.246094 336.570312 161.246094 L 344.578125 161.246094 Z M 349.90625 182.152344 "/>
<path style=" stroke:none;fill-rule:nonzero;fill:rgb(19.999695%,19.999695%,19.999695%);fill-opacity:1;" d="M 548.074219 132.558594 C 552.15625 148.570312 551.640625 160.980469 546.46875 169.707031 C 541.339844 178.472656 532.132812 182.835938 518.851562 182.835938 C 513.160156 182.835938 507.292969 181.847656 501.238281 179.839844 C 495.222656 177.828125 490.402344 175.132812 486.796875 171.71875 C 483.515625 175.207031 479.921875 177.941406 475.976562 179.875 C 472.039062 181.847656 466.144531 182.835938 458.289062 182.835938 C 449.296875 182.835938 441.253906 181.355469 434.125 178.398438 C 426.996094 175.4375 421.027344 171.375 416.230469 166.253906 C 413.152344 170.996094 409.382812 174.828125 404.96875 177.75 C 400.515625 180.671875 394.707031 182.152344 387.496094 182.152344 L 342.152344 182.152344 L 336.820312 161.246094 L 388.085938 161.246094 C 393.019531 161.246094 396.609375 160.449219 398.792969 158.890625 C 401.015625 157.335938 402.285156 155.324219 402.585938 152.78125 C 402.894531 150.277344 402.730469 147.546875 402.023438 144.625 C 401.316406 141.703125 400.367188 137.984375 399.207031 133.429688 L 396.179688 121.554688 L 414.621094 121.554688 C 418.210938 135.632812 422.984375 145.875 428.945312 152.289062 C 434.945312 158.703125 442.941406 161.929688 452.917969 161.929688 C 461.078125 161.929688 466.617188 159.535156 469.496094 154.757812 C 472.410156 149.972656 472.75 143.257812 470.53125 134.570312 L 467.214844 121.554688 L 485.65625 121.554688 L 489.914062 138.25 C 491.820312 145.722656 494.96875 151.53125 499.335938 155.703125 C 503.691406 159.839844 508.472656 161.929688 513.746094 161.929688 C 521.832031 161.929688 527.167969 159.5 529.695312 154.679688 C 532.261719 149.859375 532.15625 142.007812 529.378906 131.117188 L 522.0625 102.429688 L 540.390625 102.429688 Z M 548.074219 132.558594 "/>
<path style=" stroke:none;fill-rule:nonzero;fill:rgb(88.999939%,0%,22.999573%);fill-opacity:1;" d="M 260.414062 217.457031 L 243.945312 217.457031 L 239.746094 200.988281 L 256.214844 200.988281 Z M 260.414062 217.457031 "/>
<path style=" stroke:none;fill-rule:nonzero;fill:rgb(88.999939%,0%,22.999573%);fill-opacity:1;" d="M 230.585938 217.457031 L 214.121094 217.457031 L 209.917969 200.988281 L 226.386719 200.988281 Z M 230.585938 217.457031 "/>
<path style=" stroke:none;fill-rule:nonzero;fill:rgb(88.999939%,0%,22.999573%);fill-opacity:1;" d="M 269.984375 182.152344 L 257.003906 182.152344 C 252.414062 182.152344 247.019531 180.9375 240.886719 178.472656 C 234.765625 176.042969 229.929688 172.703125 226.417969 168.453125 C 224.921875 172.855469 221.914062 176.234375 217.316406 178.585938 C 212.726562 180.976562 207.980469 182.152344 203.082031 182.152344 L 182.289062 182.152344 L 176.957031 161.246094 L 192.742188 161.246094 C 199.421875 161.246094 204.257812 158.929688 207.222656 154.339844 C 210.1875 149.746094 210.609375 143.21875 208.464844 134.796875 L 205.027344 121.324219 L 223.699219 121.324219 L 227.132812 134.796875 C 229.175781 142.804688 232.898438 149.214844 238.300781 154.035156 C 243.742188 158.855469 249.851562 161.246094 256.644531 161.246094 L 264.652344 161.246094 Z M 269.984375 182.152344 "/>
<path style=" stroke:none;fill-rule:nonzero;fill:rgb(19.999695%,19.999695%,19.999695%);fill-opacity:1;" d="M 110.121094 182.152344 L 103.101562 182.152344 C 89.402344 182.152344 77.777344 177.484375 68.199219 168.1875 C 58.65625 158.890625 51.953125 146.75 48.140625 131.800781 L 16.871094 9.15625 L 35.3125 9.15625 L 66.234375 130.433594 C 67.28125 134.53125 68.578125 138.289062 70.113281 141.777344 C 71.6875 145.269531 73.761719 148.496094 76.375 151.453125 C 79.011719 154.492188 81.933594 156.882812 85.148438 158.625 C 88.402344 160.371094 92.457031 161.246094 97.351562 161.246094 L 104.789062 161.246094 Z M 110.121094 182.152344 "/>
<path style=" stroke:none;fill-rule:nonzero;fill:rgb(19.999695%,19.999695%,19.999695%);fill-opacity:1;" d="M 164.941406 217.632812 L 148.472656 217.632812 L 144.273438 201.164062 L 160.742188 201.164062 Z M 164.941406 217.632812 "/>
<path style=" stroke:none;fill-rule:nonzero;fill:rgb(19.999695%,19.999695%,19.999695%);fill-opacity:1;" d="M 190.050781 182.152344 L 177.074219 182.152344 C 172.484375 182.152344 167.089844 180.9375 160.957031 178.472656 C 154.835938 176.042969 150 172.703125 146.488281 168.453125 C 144.992188 172.855469 141.984375 176.234375 137.382812 178.585938 C 132.792969 180.976562 128.046875 182.152344 123.152344 182.152344 L 102.359375 182.152344 L 97.027344 161.246094 L 112.8125 161.246094 C 119.492188 161.246094 124.328125 158.929688 127.292969 154.339844 C 130.257812 149.746094 130.679688 143.21875 128.53125 134.796875 L 125.097656 121.324219 L 143.765625 121.324219 L 147.203125 134.796875 C 149.242188 142.804688 152.964844 149.214844 158.367188 154.035156 C 163.808594 158.855469 169.921875 161.246094 176.714844 161.246094 L 184.71875 161.246094 Z M 190.050781 182.152344 "/>
</g>
</svg>
